# xmcd
#
# Track frame offsets:
#	150
#	17726
#	37023
#	51319
#	72174
#	88773
#	107507
#	124280
#	137824
#	153421
#	170997
#	190294
#	204590
#	225445
#	242044
#	260778
#	277551
#	291154
#
# Disc length: 4090 seconds
#
# Revision: 1
# Processed by: cddbd v1.5.2PL0 Copyright (c) Steve Scherf et al.
# Submitted via: audiograbber 1.83.01
#
DISCID=0b0ff812
DTITLE=Various Artist - NM3081
DYEAR=1900
DGENRE=
TTITLE0=MY WISH
TTITLE1=ONCE IN A LIFETIME
TTITLE2=CRASH HERE TONIGHT
TTITLE3=YOU'LL ALWAYS BE MY BABY
TTITLE4=THE WOMAN IN MY LIFE
TTITLE5=SOME PEOPLE
TTITLE6=ONE WING IN THE FIRE
TTITLE7=GET OUTTA MY LIFE
TTITLE8=TWO PINK LINES
TTITLE9=MY WISH
TTITLE10=ONCE IN A LIFETIME
TTITLE11=CRASH HERE TONIGHT
TTITLE12=YOU'LL ALWAYS BE MY BABY
TTITLE13=THE WOMAN IN MY LIFE
TTITLE14=SOME PEOPLE
TTITLE15=ONE WING IN THE FIRE
TTITLE16=GET OUTTA MY LIFE
TTITLE17=TWO PINK LINES
EXTD=
EXTT0=
EXTT1=
EXTT2=
EXTT3=
EXTT4=
EXTT5=
EXTT6=
EXTT7=
EXTT8=
EXTT9=
EXTT10=
EXTT11=
EXTT12=
EXTT13=
EXTT14=
EXTT15=
EXTT16=
EXTT17=
PLAYORDER=
